<?xml version="1.0" encoding="UTF-8"?> <svg xmlns="http://www.w3.org/2000/svg" xmlns:xlink="http://www.w3.org/1999/xlink" width="207px" height="42px" viewBox="0 0 207 42" version="1.1"><title>Group 16</title><defs><polygon id="path-1" points="0 0 44 0 44 41.0232558 0 41.0232558"></polygon></defs><g id="Symbols" stroke="none" stroke-width="1" fill="none" fill-rule="evenodd"><g id="Navigation-/-Desktop-/-Active" transform="translate(-81.000000, -38.000000)"><g id="Group-18" transform="translate(81.000000, 28.000000)"><g id="Group-16" transform="translate(0.000000, 10.000000)"><g id="Group-3" transform="translate(163.000000, 0.000000)"><mask id="mask-2" fill="white"><use xlink:href="#path-1"></use></mask><g id="Clip-2"></g><path d="M20.4067934,25.6739547 C22.2930568,23.6230512 24.1315515,21.6240917 25.9891372,19.6043625 C27.8402633,21.2175847 29.6121453,22.761775 31.4348817,24.3502658 C31.5468767,24.1013513 31.609951,23.9794952 31.6570613,23.8520766 C31.7216579,23.6772362 31.7910273,23.5015153 31.8292916,23.320392 C32.5399782,19.9557642 32.0925744,16.7905081 30.0568747,13.9189071 C26.4779734,8.87038462 18.9685511,8.22300681 14.5599737,12.5938175 C12.0840293,15.0485467 11.2449723,18.0484468 11.4893287,21.4227591 C11.9738447,28.1132369 18.2039242,32.4718019 24.8528122,30.7292803 C25.1820083,30.6430006 25.4921133,30.4879693 25.9425618,30.3142494 C24.0408282,28.7201561 22.2544222,27.2227072 20.4067934,25.6739547 M38.4357186,41.0232558 C37.092026,39.8545582 35.7935922,38.7534116 34.5334226,37.6124067 C34.1446495,37.2604048 33.8658964,37.2487194 33.4155714,37.5143216 C29.1528508,40.0282381 24.4766293,41.0925677 19.5678187,40.5551605 C10.6289178,39.5764703 4.0994719,35.1703233 1.19171745,26.7449274 C-1.25554928,19.6538253 0.0698340956,12.9617067 5.13610413,7.20037637 C8.94064112,2.87382604 13.896274,0.59613824 19.7238793,0.100270127 C25.8253415,-0.4188887 31.3302928,1.06447369 36.0811913,4.85937945 C39.8028635,7.83210698 42.1492854,11.6615886 43.0516636,16.2665471 C44.094632,21.5891156 43.229901,26.5910166 40.1469538,31.1652809 C39.8833419,31.5564608 40.0666812,31.745908 40.3454754,31.9725322 C41.3744136,32.808917 42.3987848,33.6506242 43.4227446,34.4928116 C43.6014757,34.6397993 43.7698796,34.7987524 44,35.0026462 C42.1458293,37.0088891 40.3265901,38.9773146 38.4357186,41.0232558" id="Fill-1" fill="#111243" mask="url(#mask-2)"></path></g><path d="M96.4880733,14.1694592 C96.4287702,14.1754063 96.369467,14.1813535 96.3101638,14.1873006 C94.821023,17.8907017 93.3318409,21.5941434 91.8061773,25.3884217 L100.948439,25.3884217 C99.4328035,21.5762205 97.9604178,17.8728602 96.4880733,14.1694592 M119,41.0084749 C118.397683,41.0084749 117.895731,41.0085157 117.39378,41.0084749 C114.217491,41.0082305 111.041037,40.9910816 107.865078,41.0231388 C107.276462,41.0289233 107.015561,40.8206103 106.812932,40.3098891 C106.052184,38.3926274 105.234073,36.4974028 104.479804,34.5777785 C104.271356,34.0473014 103.970919,33.8679094 103.41016,33.8697017 C98.6939282,33.8847325 93.977614,33.8830217 89.2613411,33.867054 C88.7298411,33.8652617 88.4482646,34.0262827 88.2496795,34.5382667 C87.4865794,36.505631 86.6640524,38.4505102 85.8818861,40.4107869 C85.7227952,40.80949 85.5138104,41.0092896 85.0459468,41.0073344 C81.4607672,40.9921406 77.8755051,40.9997171 74.290243,40.9976397 C74.2228511,40.997599 74.1555006,40.9664783 74,40.9280663 C74.4265123,39.9051166 74.8343299,38.9013527 75.2618327,37.9057762 C79.0643334,29.0506001 82.8719514,20.1975013 86.6744934,11.3423251 C88.0609163,8.11367732 89.4465964,4.88470364 90.8094962,1.64644265 C91.0131574,1.16244283 91.2713758,0.973030351 91.8194245,0.97775548 C94.9232457,1.00455836 98.0276445,1.00769487 101.131424,0.976860369 C101.712694,0.971238061 101.965754,1.16916392 102.18452,1.68106644 C105.289703,8.94770325 108.421545,16.2033012 111.538944,23.4648463 C113.99171,29.1782193 116.43358,34.8961137 118.878918,40.6125417 C118.914532,40.695761 118.932773,40.7861902 119,41.0084749" id="Fill-4" fill="#111243"></path><path d="M0,35.5193742 C2.1580639,32.9555408 4.15558531,30.5824951 6.16279568,28.197873 C7.21100282,28.8751955 8.18182087,29.5519494 9.1992032,30.1508366 C12.4089901,32.0402313 15.8939109,32.9908794 19.6233043,32.8763743 C20.6160758,32.8458694 21.6713555,32.5889134 22.5671965,32.164485 C24.2383183,31.372698 24.3242925,28.9828766 22.6866937,28.1317452 C21.3122914,27.4174187 19.7967654,26.9414854 18.3049917,26.4842775 C15.238577,25.5443934 12.085861,24.8503765 9.08109592,23.7524438 C5.87895394,22.582331 3.30467332,20.4824078 2.40731971,17.0510329 C1.05021034,11.8614222 2.58368342,6.30591512 8.00443512,3.21082533 C11.5328132,1.19620206 15.3855059,0.829290246 19.3422834,1.0220276 C22.7034961,1.18572234 25.9806561,1.79533293 29.0119125,3.28572684 C30.5608388,4.04733389 31.9953373,5.04087566 33.4609058,5.96191245 C33.5996175,6.04908092 33.7124101,6.45202182 33.6319549,6.56673 C31.9061743,9.02869078 30.1509997,11.4703827 28.3925545,13.9286471 C27.3786471,13.3488103 26.4149834,12.7449676 25.4051642,12.2302431 C22.5394378,10.7696636 19.5187289,9.90045667 16.2627457,10.1594843 C15.5961285,10.2125328 14.8892427,10.4172527 14.3069645,10.7401741 C12.6863316,11.6389111 12.6006844,13.9044788 14.2460099,14.7296952 C15.7564665,15.4872404 17.4122986,16.020609 19.0597499,16.4350857 C22.221419,17.2305285 25.4174696,17.8989148 28.3844599,19.2969816 C31.2341607,20.6397659 33.6272126,22.5082825 34.5011819,25.6584923 C35.9211674,30.7767354 34.3641873,36.4374052 29.1258907,39.543584 C25.8231388,41.5020717 22.1773894,42.0466918 18.409935,41.9969335 C13.4241648,41.93109 8.66402068,40.9085463 4.3127755,38.4144152 C2.84021617,37.5703515 1.48515089,36.5246142 0,35.5193742" id="Fill-6" fill="#111243"></path><path d="M52.086733,15.6039066 C52.086733,17.1789996 52.088791,18.7540926 52.0850454,20.3291445 C52.0842633,20.6622427 52.0977227,20.9628304 52.5559189,20.9517613 C54.7595578,20.8985476 56.9930378,21.0575328 59.1604556,20.7519024 C63.007542,20.2093522 64.4268718,17.5273895 63.6798539,13.9521498 C63.2584962,11.9355635 61.4665012,10.5131422 59.0240505,10.3214416 C56.9007977,10.1547901 54.7595166,10.218007 52.6263853,10.1708608 C52.1590927,10.1605296 52.0805178,10.4132742 52.0835582,10.8070885 C52.096241,12.4059185 52.0888733,14.0049536 52.086733,15.6039066 M52.088791,40.9484727 C51.8244597,40.9732757 51.6170119,41.0095577 51.4095229,41.0097217 C48.2416635,41.0125095 45.0736805,40.99402 41.9061092,41.0231132 C41.2283641,41.0291542 40.9989779,40.844956 41.0000034,40.1421907 C41.0192287,27.3977945 41.0191052,14.6533163 41.0005831,1.90892007 C40.9995541,1.20123514 41.182388,0.971899636 41.9246725,0.976821462 C47.9000743,1.01720098 53.878234,0.915365195 59.8504665,1.06151841 C63.7504026,1.15695871 67.4339592,2.18814855 70.5198274,4.75503354 C72.8648929,6.70569722 74.2191072,9.22818279 74.7218799,12.1987622 C75.2586099,15.3700615 75.0771754,18.4913857 73.6585865,21.4317916 C71.8290123,25.2241088 68.6788517,27.4447767 64.7054033,28.6203569 C62.5293419,29.264169 60.3008011,29.5436844 58.0326641,29.5374529 C56.2807593,29.5326563 54.5286898,29.5504489 52.7769908,29.5314674 C52.253926,29.5258099 52.0754139,29.698078 52.079036,30.2351347 C52.1009744,33.504621 52.0892849,36.7743533 52.088791,40.0439626 C52.0887498,40.3259379 52.088791,40.6079131 52.088791,40.9484727" id="Fill-8" fill="#111243"></path><path d="M151.58833,14.7915545 C150.232483,14.4327372 148.953174,14.1320878 147.698909,13.7483181 C146.917387,13.5092151 146.151794,13.1894749 145.417857,12.8262614 C144.119192,12.1835653 143.520268,11.0908313 143.662579,9.63818091 C143.787187,8.36683198 143.975228,7.10187378 144.12758,5.8331707 C144.162987,5.53854567 144.167261,5.24013505 144.046041,4.89438415 C143.504218,5.67543763 142.958201,6.45351962 142.421379,7.23807375 C140.138593,10.574403 136.909231,11.7977197 133.013035,11.4940581 C131.209607,11.3535026 129.410615,11.155797 127.609123,10.9891494 C127.411888,10.9708727 127.211547,10.9866664 126.978139,11.0902614 C127.625737,11.3923762 128.303661,11.6430802 128.914361,12.0079626 C129.999499,12.6563168 131.126455,13.2749968 132.084766,14.0871898 C133.316167,15.1308739 133.488562,16.5982189 132.785757,18.0851432 C131.984475,19.7804379 130.793844,21.1927086 129.470984,22.4744374 C127.540649,24.3448057 125.537728,26.1391771 123.561139,27.9608618 C123.431087,28.0806983 123.261999,28.1575092 123,28.3255814 L123,27.454325 C123,18.9462233 123,10.4381216 123.000807,1.93001999 C123.000887,0.988139839 123.002662,0.984842709 123.913106,0.984639183 C129.956632,0.983418023 136.000238,0.963553832 142.043603,0.991925433 C145.119927,1.00637582 148.134633,1.40195001 150.951297,2.78361033 C154.183563,4.36920425 156.451589,6.83643446 157.450912,10.3226814 C158.121658,12.6624633 158.132506,15.0848769 157.728115,17.5019582 C157.171976,20.8265237 155.38117,23.3252191 152.714721,25.2574187 C151.036264,26.473734 149.813897,26.4478048 148.288881,25.0578813 C147.315124,24.1703427 146.399195,23.2156404 145.493953,22.255972 C145.159003,21.9008996 144.89648,21.4637653 144.656297,21.0327368 C143.523494,18.9997508 143.964703,17.3558669 146.103524,16.4557504 C147.624587,15.8156187 149.283002,15.5065432 150.88117,15.0534117 C151.038523,15.0087987 151.205191,14.9978897 151.36331,14.9553934 C151.42396,14.9391112 151.472795,14.8781347 151.58833,14.7915545" id="Fill-10" fill="#111243"></path><path d="M161,41.0221868 C156.723704,41.0221868 152.576092,41.0302563 148.42869,41.002053 C148.181783,41.0003752 147.855951,40.7599281 147.703412,40.54325 C145.068083,36.8002 142.454639,33.0431683 139.835421,29.2898117 C138.714507,27.6835416 137.590246,26.0793888 136.470503,24.4723597 C136.285031,24.206226 136.115042,23.930305 136,23.4418605 C137.170965,23.5154847 138.365365,23.4736191 139.50871,23.6837857 C143.454025,24.4088823 147.114394,25.8487289 150.453993,27.9836312 C152.430334,29.2470674 153.884279,30.9926762 155.203178,32.8549332 C157.016393,35.4152021 158.85819,37.9570948 160.685717,40.5081357 C160.778454,40.6374874 160.852275,40.7791431 161,41.0221868" id="Fill-12" fill="#111243"></path><path d="M133.947335,23.4418605 C133.966754,23.8728254 133.984216,24.0799528 133.984257,24.2870801 C133.985766,29.6030529 133.974506,34.9190659 134,40.2349179 C134.002942,40.8600849 133.823023,41.0286375 133.19951,41.0230406 C130.039022,40.9945324 126.877964,40.9957404 123.717477,41.0232558 C123.136801,41.0281946 122.997068,40.8325833 123,40.299625 C123.018854,36.950919 123.00278,33.6020115 123.024117,30.2533054 C123.025831,29.9862626 123.1439,29.6215349 123.340912,29.469008 C125.786499,27.5758707 128.209157,25.6365484 131.097604,24.4094076 C131.979001,24.0349758 132.916006,23.7875827 133.947335,23.4418605" id="Fill-14" fill="#111243"></path></g></g></g></g></svg> 